<svg xmlns="http://www.w3.org/2000/svg" viewBox="0 0 64 64" width="64" height="64">
  <defs>
    <linearGradient id="bg" x1="0" y1="0" x2="64" y2="64" gradientUnits="userSpaceOnUse">
      <stop offset="0" stop-color="#0a0c14"/>
      <stop offset="1" stop-color="#05060a"/>
    </linearGradient>
    <linearGradient id="stroke" x1="0" y1="0" x2="64" y2="64" gradientUnits="userSpaceOnUse">
      <stop offset="0" stop-color="#00d4ff"/>
      <stop offset="1" stop-color="#10b981"/>
    </linearGradient>
    <linearGradient id="mark" x1="14" y1="14" x2="50" y2="50" gradientUnits="userSpaceOnUse">
      <stop offset="0" stop-color="#67e8ff"/>
      <stop offset="1" stop-color="#10b981"/>
    </linearGradient>
    <radialGradient id="glow" cx="32" cy="22" r="28" gradientUnits="userSpaceOnUse">
      <stop offset="0" stop-color="#00d4ff" stop-opacity=".35"/>
      <stop offset="1" stop-color="#00d4ff" stop-opacity="0"/>
    </radialGradient>
    <filter id="soft" x="-20%" y="-20%" width="140%" height="140%">
      <feGaussianBlur stdDeviation=".6"/>
    </filter>
  </defs>

  <rect x="2" y="2" width="60" height="60" rx="14" fill="url(#bg)"/>
  <rect x="2" y="2" width="60" height="60" rx="14" fill="url(#glow)"/>
  <rect x="2.5" y="2.5" width="59" height="59" rx="13.5" fill="none" stroke="url(#stroke)" stroke-opacity=".55" stroke-width="1"/>

  <g filter="url(#soft)" opacity=".55">
    <path d="M16 16 H30 a8 8 0 0 1 0 16 H22 l10 16" fill="none" stroke="#00d4ff" stroke-width="6" stroke-linecap="round" stroke-linejoin="round"/>
    <path d="M48 16 L36 30 L48 48" fill="none" stroke="#00d4ff" stroke-width="6" stroke-linecap="round" stroke-linejoin="round"/>
    <path d="M36 30 L46 30" fill="none" stroke="#00d4ff" stroke-width="6" stroke-linecap="round" stroke-linejoin="round"/>
  </g>

  <g>
    <path d="M16 16 H30 a8 8 0 0 1 0 16 H22 l10 16" fill="none" stroke="url(#mark)" stroke-width="4.5" stroke-linecap="round" stroke-linejoin="round"/>
    <path d="M48 16 L36 30 L48 48" fill="none" stroke="url(#mark)" stroke-width="4.5" stroke-linecap="round" stroke-linejoin="round"/>
    <path d="M36 30 L46 30" fill="none" stroke="url(#mark)" stroke-width="4.5" stroke-linecap="round" stroke-linejoin="round"/>
  </g>

  <circle cx="50" cy="14" r="3" fill="#10b981"/>
  <circle cx="50" cy="14" r="3" fill="#10b981" opacity=".45" filter="url(#soft)"/>
</svg>
